<?xml version="1.0" standalone="no"?>
<!DOCTYPE svg PUBLIC "-//W3C//DTD SVG 20010904//EN"
 "http://www.w3.org/TR/2001/REC-SVG-20010904/DTD/svg10.dtd">
<svg version="1.0" xmlns="http://www.w3.org/2000/svg"
 width="1118.000000pt" height="894.000000pt" viewBox="0 0 1118.000000 894.000000"
 preserveAspectRatio="xMidYMid meet">

<g transform="translate(0.000000,894.000000) scale(0.100000,-0.100000)"
fill="#044F88" stroke="none">
<path d="M5270 7928 c-90 -8 -143 -19 -200 -39 -14 -5 -54 -16 -90 -23 -66
-15 -207 -61 -270 -89 -19 -8 -61 -25 -92 -37 -32 -12 -58 -26 -58 -31 0 -5
-8 -9 -17 -9 -15 0 -243 -131 -269 -155 -6 -5 -37 -28 -69 -50 -117 -82 -312
-262 -424 -390 -86 -99 -156 -199 -238 -340 -51 -88 -67 -119 -102 -197 -11
-25 -25 -49 -31 -53 -6 -3 -8 -10 -5 -15 3 -5 -6 -32 -20 -59 -14 -28 -31 -74
-39 -103 -8 -29 -21 -71 -29 -93 -8 -22 -23 -78 -32 -125 -10 -47 -22 -103
-27 -125 -15 -64 -27 -189 -34 -345 -8 -174 7 -345 48 -545 23 -116 84 -321
108 -367 11 -20 20 -42 20 -48 0 -6 18 -48 40 -92 22 -45 40 -87 40 -93 0 -7
9 -20 20 -30 11 -10 20 -25 20 -33 0 -9 15 -38 34 -66 37 -56 66 -101 81 -124
84 -130 254 -321 400 -449 84 -73 83 -73 155 -125 36 -26 73 -54 83 -63 10 -9
33 -23 50 -30 18 -7 44 -22 58 -33 67 -53 292 -157 449 -208 41 -14 84 -29 95
-34 11 -5 56 -16 100 -25 44 -9 105 -22 135 -30 133 -33 471 -46 681 -25 102
10 375 63 414 80 11 5 45 17 75 26 83 25 155 55 330 138 19 9 58 30 85 46 28
16 70 41 95 55 25 14 61 38 81 53 20 15 58 42 84 61 26 19 56 41 66 50 10 9
45 41 80 71 85 76 144 135 209 209 30 35 64 73 75 86 11 12 30 36 43 54 41 57
87 122 97 140 6 9 21 34 35 56 48 78 150 275 150 292 0 6 11 30 24 54 14 24
29 62 35 84 5 22 20 74 34 115 42 125 75 297 88 450 20 247 -3 635 -45 749 -9
24 -16 55 -16 70 0 14 -12 58 -26 96 -14 39 -30 87 -35 109 -12 48 -90 223
-136 306 -8 14 -23 44 -34 67 -11 23 -24 45 -29 48 -6 4 -19 23 -31 43 -35 65
-92 144 -187 260 -69 83 -289 302 -304 302 -5 0 -21 14 -35 30 -13 17 -29 30
-34 30 -8 0 -73 46 -126 90 -6 5 -27 18 -46 29 -19 10 -67 39 -108 64 -95 58
-221 117 -248 117 -12 0 -21 4 -21 9 0 10 -36 25 -100 42 -25 6 -56 16 -70 21
-56 24 -68 27 -130 38 -36 7 -69 15 -75 20 -11 8 -48 16 -145 31 -90 14 -575
19 -690 7z m158 -310 c17 -17 17 -448 0 -471 -11 -14 -43 -19 -188 -27 -195
-12 -317 -24 -400 -40 -30 -6 -82 -15 -115 -20 -33 -5 -77 -12 -97 -16 -29 -5
-38 -3 -38 7 0 35 62 219 110 324 10 22 21 48 24 58 3 9 14 20 23 23 10 3 52
18 93 34 139 53 244 82 400 110 187 34 173 33 188 18z m512 -18 c133 -24 244
-55 385 -110 94 -36 100 -40 112 -76 7 -21 20 -45 28 -54 8 -9 15 -26 15 -36
0 -11 9 -39 21 -63 26 -55 69 -181 69 -205 0 -16 -5 -18 -37 -12 -21 4 -67 12
-103 17 -36 6 -90 15 -120 20 -96 17 -210 28 -379 38 -140 8 -167 12 -178 27
-18 24 -19 454 -1 472 12 12 13 12 188 -18z m-1660 -486 c0 -30 -23 -103 -49
-154 -4 -8 -49 -27 -99 -43 -51 -16 -89 -33 -86 -38 8 -14 3067 -12 3062 3 -2
6 -38 22 -79 34 l-74 24 -28 84 c-29 90 -33 116 -18 116 15 0 132 -103 180
-158 85 -99 90 -114 93 -284 l3 -151 70 -29 c39 -16 79 -32 90 -35 81 -21 135
-63 135 -103 0 -5 11 -33 24 -62 13 -29 32 -84 41 -123 10 -38 21 -74 25 -80
5 -5 13 -38 19 -72 27 -155 31 -182 37 -240 l7 -63 -224 -2 -224 -3 0 -155 0
-155 219 -2 c120 -1 221 -4 223 -7 7 -7 -28 -247 -46 -321 -6 -22 -13 -52 -17
-68 -3 -15 -10 -30 -15 -33 -5 -3 -9 -18 -9 -34 0 -16 -11 -54 -25 -84 -14
-31 -31 -72 -38 -92 -11 -33 -20 -41 -82 -66 -38 -17 -99 -40 -135 -53 -36
-13 -80 -31 -98 -40 -18 -9 -52 -20 -74 -23 l-41 -5 6 44 c3 24 9 68 12 97 l7
53 -153 -3 -154 -3 -21 -85 c-12 -47 -23 -100 -23 -118 -1 -18 -7 -47 -15 -65
-12 -30 -18 -33 -112 -54 -97 -21 -219 -46 -319 -64 -27 -5 -102 -13 -165 -19
-63 -5 -166 -15 -227 -21 -85 -9 -116 -9 -127 0 -11 9 -14 53 -13 219 l1 207
-152 3 c-118 2 -152 0 -152 -10 -1 -7 0 -99 0 -203 1 -146 -2 -195 -13 -209
-13 -18 -21 -18 -153 -7 -76 7 -191 16 -254 21 -63 5 -135 13 -160 18 -54 12
-177 35 -278 53 -78 13 -90 21 -102 71 -16 61 -38 163 -47 213 l-8 50 -164 3
-163 3 7 -58 c3 -32 11 -77 17 -101 6 -23 8 -45 6 -48 -8 -8 -130 27 -182 52
-28 13 -56 24 -63 24 -7 0 -46 15 -86 34 -68 31 -75 37 -95 84 -12 28 -22 57
-22 64 0 7 -8 27 -18 43 -10 17 -21 41 -25 55 -3 14 -15 61 -27 105 -29 108
-47 204 -55 297 l-7 78 193 2 c177 1 206 2 247 7 10 1 12 36 10 154 l-3 152
-222 3 -223 2 0 33 c1 65 30 250 51 320 53 177 96 295 113 312 15 14 144 75
159 75 6 0 38 12 69 27 l58 28 0 161 c0 131 3 164 15 174 8 7 15 20 15 30 0 9
12 30 28 46 15 17 43 48 62 69 42 47 141 135 152 135 5 0 8 -16 8 -36z m-141
-2860 c75 -25 81 -29 92 -63 6 -20 17 -50 25 -68 24 -54 29 -93 11 -93 -33 0
-247 209 -247 241 0 15 35 10 119 -17z m3001 6 c0 -22 -37 -67 -125 -153 -77
-75 -103 -93 -116 -80 -11 11 -6 36 29 133 20 54 22 56 84 78 134 49 128 48
128 22z m-2355 -160 c39 -5 93 -14 120 -20 82 -17 323 -40 420 -40 57 0 95 -4
103 -12 13 -13 18 -441 6 -472 -7 -18 -32 -20 -101 -7 -26 6 -86 15 -133 22
-47 7 -103 18 -125 26 -22 8 -65 21 -95 29 -30 8 -65 19 -77 24 -32 14 -62 26
-103 41 -45 16 -60 28 -60 47 0 8 -13 44 -30 79 -16 34 -30 67 -30 73 0 5 -12
35 -26 67 -21 47 -53 144 -54 162 0 4 48 -1 185 -19z m1805 8 c0 -15 -48 -154
-74 -213 -9 -22 -22 -58 -27 -82 -22 -83 -66 -114 -254 -175 -149 -47 -196
-60 -290 -74 -172 -26 -187 -28 -194 -15 -13 21 -13 461 0 477 8 10 39 14 123
15 121 0 322 19 456 43 215 38 260 42 260 24z"/>
<path d="M4142 6743 c-15 -29 -14 -1416 1 -1425 19 -12 1935 -10 1942 2 6 9
-64 103 -125 168 l-21 22 -37 -27 c-20 -16 -38 -31 -40 -35 -6 -13 -94 -69
-100 -64 -6 6 -31 401 -31 502 -1 41 3 63 12 66 11 5 118 -19 367 -79 58 -14
123 -28 144 -32 22 -3 41 -11 43 -18 2 -6 -32 -42 -76 -79 -45 -37 -81 -69
-81 -72 0 -5 50 -66 93 -113 15 -17 27 -35 27 -39 0 -5 14 -19 30 -32 17 -12
30 -26 30 -32 0 -11 6 -18 83 -98 l46 -48 278 0 c153 0 288 3 301 6 l22 6 -2
717 -3 716 -1447 3 c-1371 2 -1448 1 -1456 -15z"/>
<path d="M4057 5193 c-10 -9 -8 -55 1 -71 7 -9 46 -12 163 -10 l154 3 3 28 c6
53 -6 57 -168 57 -80 0 -150 -3 -153 -7z"/>
<path d="M5447 5193 c-4 -3 -7 -24 -7 -45 l0 -38 149 0 c138 0 149 1 154 19 2
10 2 31 0 45 l-5 26 -142 0 c-79 0 -146 -3 -149 -7z"/>
<path d="M6810 5179 c-6 -11 -10 -30 -8 -42 3 -21 7 -22 161 -25 l157 -3 0 46
0 45 -150 0 c-140 0 -150 -1 -160 -21z"/>
<path d="M4017 5013 c-3 -5 -4 -39 -3 -78 l1 -70 1569 -3 c864 -1 1573 1 1578
6 4 4 5 40 1 80 l-6 72 -1568 0 c-862 0 -1570 -3 -1572 -7z"/>
<path d="M4803 2944 c-18 -8 -33 -20 -33 -28 0 -16 26 -40 37 -33 4 3 18 1 31
-4 39 -15 26 -59 -25 -87 -47 -26 -55 -49 -20 -57 12 -3 85 -4 162 -3 l140 3
0 35 0 35 -75 5 -75 5 3 38 c5 50 -18 83 -65 96 -45 13 -40 13 -80 -5z"/>
<path d="M7796 2845 c-15 -81 28 -104 210 -111 172 -7 186 -4 182 39 l-3 32
-142 5 c-78 3 -143 7 -145 10 -2 3 -9 17 -16 33 -9 22 -18 27 -46 27 -31 0
-34 -3 -40 -35z"/>
<path d="M9358 2863 c-37 -3 -52 -10 -73 -34 -28 -34 -30 -43 -14 -88 10 -29
15 -32 48 -29 31 3 36 7 39 31 4 34 39 50 87 41 49 -9 77 10 73 49 -3 32 -4
32 -58 33 -30 0 -76 -1 -102 -3z"/>
<path d="M2394 2626 c-49 -17 -64 -35 -64 -73 0 -33 1 -35 28 -28 131 36 162
38 225 20 48 -14 62 -23 85 -58 24 -36 27 -51 30 -143 4 -110 -5 -142 -56
-196 -19 -21 -35 -28 -64 -28 -46 0 -47 4 -51 145 l-2 100 -80 0 -80 0 -3 -32
c-3 -32 -2 -33 31 -33 23 0 37 -6 41 -16 3 -9 6 -67 6 -130 l0 -114 85 0 c110
0 160 15 210 65 59 58 79 129 73 255 -7 143 -46 213 -143 259 -37 17 -63 21
-142 20 -54 -1 -112 -6 -129 -13z"/>
<path d="M3080 2620 c-19 -10 -44 -24 -55 -30 -47 -27 -91 -135 -63 -156 7 -6
32 -16 56 -23 49 -14 54 -34 15 -53 -50 -23 -68 -78 -68 -203 l0 -110 53 -3
52 -3 0 108 c0 126 20 186 63 197 27 6 45 42 29 58 -5 5 -24 17 -42 26 -43 22
-58 46 -44 70 16 26 77 53 125 53 52 1 124 -25 136 -49 4 -9 10 -116 13 -237
l5 -220 44 -3 c24 -2 48 1 52 5 5 5 6 114 2 243 l-6 234 -34 37 c-53 59 -107
79 -210 79 -67 -1 -96 -6 -123 -20z"/>
<path d="M3983 2633 l-23 -4 0 -262 c0 -238 2 -265 19 -292 37 -61 171 -73
179 -17 5 31 -15 52 -49 52 -18 0 -32 7 -39 19 -6 12 -10 113 -10 259 0 272 4
261 -77 245z"/>
<path d="M4282 2628 c-13 -13 -18 -466 -6 -528 10 -47 72 -84 131 -77 57 6 68
17 56 54 -7 22 -17 29 -44 33 l-34 5 -5 255 -5 254 -25 7 c-39 11 -55 10 -68
-3z"/>
<path d="M4692 2613 c-75 -38 -114 -90 -110 -145 3 -41 4 -42 48 -53 55 -13
64 -37 22 -59 -46 -24 -72 -96 -72 -200 0 -113 2 -116 60 -116 l48 0 4 118 c3
112 5 121 31 155 15 20 34 37 42 37 8 0 19 8 24 19 8 14 6 22 -8 35 -9 9 -22
16 -27 16 -5 0 -22 11 -38 23 -66 53 8 114 127 105 128 -11 137 -32 137 -303
l0 -205 50 0 50 0 0 227 c0 223 0 227 -25 269 -15 25 -43 53 -72 70 -42 25
-60 29 -143 31 -87 3 -99 1 -148 -24z"/>
<path d="M5258 2623 c-31 -12 -38 -20 -38 -43 0 -16 5 -32 10 -35 6 -4 41 -2
78 5 62 10 74 9 125 -10 51 -19 60 -27 82 -70 21 -42 25 -63 25 -139 0 -95
-18 -146 -66 -192 -29 -27 -95 -35 -164 -20 -58 12 -65 10 -75 -30 -6 -25 -3
-28 50 -48 71 -27 138 -27 206 0 58 23 129 89 129 120 0 10 4 20 9 23 15 10
34 136 28 191 -5 51 -17 86 -56 163 -15 32 -55 62 -115 89 -40 18 -182 16
-228 -4z"/>
<path d="M5875 2624 c-22 -8 -46 -20 -53 -27 -15 -16 -5 -80 12 -74 7 3 50 13
95 22 78 16 87 16 135 1 67 -22 70 -24 96 -75 17 -35 23 -65 25 -137 3 -101
-12 -152 -59 -199 -22 -21 -34 -25 -89 -25 -49 0 -70 5 -89 20 -34 26 -50 68
-46 121 l3 44 60 5 c50 4 60 8 63 25 1 11 -1 25 -6 32 -10 15 -199 20 -214 5
-33 -33 -15 -186 30 -252 56 -82 190 -113 305 -70 63 24 98 57 129 125 20 43
23 66 23 160 -1 102 -3 115 -32 176 -25 54 -40 71 -84 100 -51 33 -58 34 -159
36 -74 2 -117 -2 -145 -13z"/>
<path d="M6500 2631 l-25 -7 -3 -293 -2 -292 37 3 c33 3 38 7 44 36 10 47 18
51 45 19 30 -35 118 -77 163 -77 84 0 169 53 190 119 7 21 11 124 11 262 l0
229 -50 0 -50 0 0 -204 c0 -282 -10 -306 -129 -306 -58 1 -70 4 -96 28 -48 44
-55 79 -55 285 0 174 -1 187 -19 197 -22 11 -25 11 -61 1z"/>
<path d="M7225 2625 c-16 -8 -45 -27 -64 -43 -31 -25 -35 -35 -39 -88 -3 -50
0 -64 20 -93 26 -37 124 -96 178 -106 69 -13 130 -62 130 -105 0 -51 -28 -72
-106 -77 -38 -3 -89 0 -114 7 -89 23 -92 23 -101 9 -5 -8 -9 -26 -9 -41 0 -25
6 -29 58 -45 36 -11 89 -18 142 -18 150 0 240 64 240 170 0 49 -33 109 -72
133 -18 11 -76 36 -128 57 -108 42 -132 61 -132 101 0 62 95 88 216 60 75 -18
89 -13 81 29 -2 11 -4 25 -4 31 -2 30 -238 45 -296 19z"/>
<path d="M7765 2617 c-60 -28 -105 -87 -105 -137 0 -51 43 -105 114 -144 34
-19 76 -36 95 -40 19 -3 56 -20 83 -37 44 -28 48 -34 48 -70 0 -30 -5 -42 -26
-56 -34 -22 -115 -28 -184 -13 -30 6 -67 14 -81 17 -22 4 -28 0 -39 -27 -7
-18 -9 -35 -4 -40 20 -19 114 -43 184 -47 93 -6 169 19 221 73 32 33 34 39 34
104 0 66 -2 71 -33 100 -33 30 -132 80 -212 107 -87 29 -115 82 -64 122 38 30
102 36 185 17 90 -20 86 -21 92 11 12 62 -31 83 -167 83 -74 0 -100 -5 -141
-23z"/>
<path d="M8334 2627 c-11 -6 -37 -34 -57 -63 l-37 -52 0 -156 c0 -160 3 -176
48 -249 42 -69 184 -112 237 -73 16 12 18 19 10 43 -9 25 -16 28 -66 33 -65 6
-81 16 -108 74 -17 35 -21 62 -21 152 0 124 11 177 43 199 33 23 63 18 97 -15
25 -25 34 -28 50 -20 11 6 20 15 20 20 0 19 54 39 75 28 44 -23 45 -32 45
-275 l0 -234 53 3 52 3 3 224 c3 316 -11 357 -128 369 -49 4 -110 -12 -110
-29 0 -16 -34 -9 -60 11 -28 22 -109 26 -146 7z"/>
<path d="M8978 2629 c-16 -9 -18 -31 -18 -227 1 -201 2 -221 23 -272 20 -49
28 -58 77 -82 89 -44 176 -34 251 30 42 36 58 33 59 -9 0 -37 61 -48 82 -15 4
6 7 135 8 287 1 312 1 310 -68 293 l-37 -9 -5 -205 c-4 -124 -10 -213 -17
-225 -6 -11 -25 -33 -41 -49 -27 -25 -38 -28 -95 -28 -36 0 -70 3 -76 6 -6 4
-21 26 -33 49 -19 38 -21 59 -24 246 -2 214 -3 221 -49 221 -11 -1 -28 -5 -37
-11z"/>
<path d="M1727 2623 c-4 -3 -7 -136 -7 -295 l0 -288 50 0 50 0 0 90 c0 106 8
125 79 193 47 45 53 48 88 41 57 -10 73 -22 94 -67 14 -33 19 -66 19 -149 0
-105 1 -108 24 -114 13 -3 35 -4 47 -2 24 3 24 5 27 131 2 119 1 133 -22 182
-21 46 -31 56 -75 76 -34 16 -51 30 -51 42 0 10 29 47 65 82 36 36 65 70 65
75 0 6 -23 10 -52 10 -57 0 -48 7 -231 -190 -67 -73 -77 -62 -77 81 l0 109
-43 0 c-24 0 -47 -3 -50 -7z"/>
<path d="M3673 2183 c-51 -10 -70 -89 -32 -137 43 -54 130 -24 145 50 10 53
-49 98 -113 87z"/>
<path d="M2275 1803 c-76 -17 -135 -78 -135 -140 0 -48 44 -109 89 -124 20 -6
47 -17 61 -24 14 -7 37 -18 53 -24 31 -12 36 -41 10 -66 -26 -26 -95 -15 -125
20 -21 24 -26 26 -39 13 -8 -8 -24 -20 -37 -27 -29 -16 -28 -35 6 -66 47 -46
82 -59 154 -58 57 0 74 4 107 27 77 54 82 160 11 223 -14 12 -46 28 -73 34
-26 7 -62 25 -80 40 -32 27 -32 27 -13 48 24 27 50 27 87 0 26 -18 34 -19 59
-9 16 7 34 18 40 25 34 41 -102 125 -175 108z"/>
<path d="M5021 1802 c-13 -2 -41 -15 -61 -28 -49 -32 -67 -88 -50 -150 15 -54
27 -64 120 -104 88 -38 100 -46 100 -71 0 -44 -108 -51 -142 -10 -9 12 -19 21
-22 21 -13 0 -76 -46 -76 -55 1 -18 44 -62 78 -79 37 -19 142 -23 182 -8 49
19 83 67 88 124 4 50 2 55 -34 95 -30 32 -55 47 -107 63 -53 17 -70 28 -78 47
-19 51 35 71 85 32 28 -22 56 -21 89 3 61 45 -71 137 -172 120z"/>
<path d="M1381 1786 c-8 -9 -11 -86 -9 -242 l3 -229 44 -3 c28 -2 47 1 53 10
13 21 8 459 -6 463 -41 12 -75 13 -85 1z"/>
<path d="M1553 1793 c-8 -2 -13 -22 -13 -44 0 -45 10 -52 74 -53 l41 -1 3
-179 c2 -116 7 -184 14 -193 7 -9 26 -13 52 -11 l41 3 5 183 c6 202 6 203 70
201 19 0 41 -1 48 0 16 1 16 73 0 89 -12 12 -307 17 -335 5z"/>
<path d="M2551 1786 c-8 -9 -11 -82 -9 -242 l3 -229 145 0 145 0 3 44 c2 29
-1 47 -10 52 -7 5 -44 8 -83 8 -38 0 -76 0 -82 0 -14 1 -19 80 -5 82 4 1 41 3
82 5 l75 2 3 46 c4 52 0 54 -103 58 -58 3 -60 4 -63 31 -6 48 13 58 93 56 40
-1 77 1 84 5 17 11 14 83 -5 90 -9 3 -71 6 -139 6 -92 0 -125 -3 -134 -14z"/>
<path d="M2924 1787 c-2 -7 -3 -116 -2 -242 l3 -230 44 -3 c55 -4 61 4 61 90
0 56 3 68 19 73 30 9 44 -3 91 -83 l46 -77 52 -3 c38 -2 52 1 52 10 0 13 -23
60 -60 127 -21 37 -16 55 22 98 13 14 21 41 25 80 4 54 2 61 -27 96 -52 61
-97 77 -217 77 -75 0 -105 -4 -109 -13z m238 -121 c41 -50 7 -89 -73 -84 l-54
3 -3 43 c-2 24 2 49 8 56 17 21 101 8 122 -18z"/>
<path d="M3358 1793 c-25 -6 -27 4 32 -163 34 -95 69 -201 84 -252 15 -52 20
-58 50 -63 55 -11 89 -2 103 25 25 52 117 332 144 440 3 11 -7 16 -40 18 -55
4 -76 -14 -90 -79 -6 -27 -22 -75 -35 -107 -13 -31 -26 -68 -28 -82 -1 -14
-10 -26 -19 -28 -11 -2 -22 20 -43 85 -15 48 -38 115 -50 148 -21 57 -24 60
-56 62 -19 0 -43 -1 -52 -4z"/>
<path d="M3846 1784 c-12 -31 -7 -449 6 -462 7 -7 31 -12 55 -12 38 0 43 3 43
23 6 299 3 449 -11 458 -24 15 -86 11 -93 -7z"/>
<path d="M4165 1778 c-92 -46 -145 -129 -145 -227 1 -158 138 -269 295 -240
57 10 77 22 127 73 35 36 35 47 -1 69 -39 23 -54 22 -88 -7 -27 -23 -58 -29
-126 -27 -38 1 -81 48 -96 104 -12 40 -11 48 8 85 23 45 80 82 127 82 15 0 50
-12 78 -26 50 -25 53 -25 89 -11 20 9 37 23 37 31 0 8 -20 32 -44 53 -71 63
-182 80 -261 41z"/>
<path d="M4557 1793 c-16 -4 -17 -22 -15 -241 l3 -237 145 0 145 0 3 48 c3 53
13 48 -103 52 -84 3 -82 2 -88 32 -10 52 6 63 88 63 l74 0 7 36 c9 49 -4 58
-89 64 -70 5 -72 6 -75 33 -6 47 12 57 98 57 84 0 90 4 90 60 0 16 -7 30 -16
34 -18 7 -240 6 -267 -1z"/>
<path d="M6200 1779 c-51 -30 -60 -47 -60 -106 0 -78 18 -105 95 -141 36 -18
76 -34 90 -38 32 -8 48 -29 40 -53 -12 -39 -106 -39 -141 0 -22 24 -35 24 -68
-2 -36 -28 -33 -52 11 -88 77 -63 196 -61 265 6 89 86 43 194 -103 243 -73 25
-96 48 -79 80 14 25 46 25 88 0 42 -26 55 -25 88 3 27 23 27 24 9 51 -42 64
-164 87 -235 45z"/>
<path d="M6655 1778 c-58 -29 -103 -76 -131 -136 -32 -71 -31 -115 7 -191 94
-187 324 -197 436 -19 29 46 33 60 33 123 0 73 -15 107 -74 174 -58 64 -192
88 -271 49z m161 -104 c21 -10 45 -34 60 -60 33 -56 26 -104 -24 -156 -34 -36
-39 -38 -100 -38 -61 0 -66 2 -98 37 -36 39 -51 86 -39 125 28 88 120 130 201
92z"/>
<path d="M7075 1790 c-3 -5 -6 -111 -5 -236 0 -172 3 -230 12 -236 7 -4 72 -7
143 -6 l130 3 3 48 c2 28 -1 48 -7 48 -6 1 -15 3 -21 4 -5 1 -41 3 -80 4 l-70
1 0 171 c0 98 -4 178 -10 190 -8 14 -21 19 -50 19 -21 0 -41 -4 -45 -10z"/>
<path d="M7436 1785 c-13 -14 -16 -42 -16 -176 0 -140 2 -165 20 -199 48 -94
174 -133 271 -84 39 19 87 79 94 116 3 18 5 105 3 193 l-3 160 -35 1 c-73 3
-70 11 -70 -175 0 -158 -1 -169 -21 -187 -15 -13 -35 -19 -66 -18 -74 2 -77 9
-83 207 l-5 172 -36 3 c-24 2 -42 -3 -53 -13z"/>
<path d="M7877 1794 c-4 -4 -7 -27 -7 -51 0 -47 -6 -43 79 -47 16 0 32 -4 36
-7 3 -4 6 -77 6 -162 0 -86 4 -169 8 -184 7 -25 12 -28 52 -28 l44 0 5 185 5
185 55 5 55 5 0 50 0 50 -166 3 c-91 1 -168 -1 -172 -4z"/>
<path d="M8296 1791 c-10 -16 -9 -462 2 -473 5 -5 29 -8 53 -6 l44 3 3 220 c1
121 0 230 -3 243 -5 19 -12 22 -50 22 -24 0 -46 -4 -49 -9z"/>
<path d="M8605 1774 c-135 -67 -187 -233 -109 -345 101 -146 260 -166 387 -50
63 57 87 158 58 244 -21 64 -74 132 -116 148 -16 6 -38 15 -47 20 -35 18 -121
10 -173 -17z m170 -101 c44 -21 65 -65 65 -134 0 -42 -5 -53 -35 -84 -33 -33
-40 -35 -98 -35 -59 0 -65 2 -96 34 -63 65 -50 175 26 215 47 25 91 26 138 4z"/>
<path d="M9027 1793 c-4 -3 -7 -111 -7 -239 0 -253 -2 -244 59 -244 46 0 51
14 51 141 0 65 4 120 9 123 5 3 46 -52 92 -122 46 -70 88 -130 94 -134 16 -12
60 -9 73 4 9 9 12 75 12 234 0 247 0 248 -67 242 l-38 -3 -3 -113 c-2 -84 -6
-112 -15 -109 -15 4 -60 65 -107 142 -19 32 -41 64 -48 72 -14 13 -93 18 -105
6z"/>
<path d="M9554 1777 c-52 -36 -70 -122 -39 -184 15 -30 62 -58 168 -100 28
-12 37 -21 37 -39 0 -49 -96 -58 -141 -13 -24 24 -27 24 -67 -9 l-33 -28 20
-26 c40 -51 89 -72 162 -72 102 1 165 51 170 134 5 71 -47 128 -148 165 -63
23 -84 45 -67 73 17 26 53 27 80 1 20 -18 29 -21 55 -13 65 19 65 75 0 112
-54 30 -152 30 -197 -1z"/>
<path d="M5575 1766 c-54 -23 -75 -99 -41 -148 17 -24 21 -58 7 -58 -5 0 -25
-17 -45 -37 -30 -32 -36 -44 -36 -82 0 -38 5 -49 39 -81 29 -28 51 -39 86 -44
53 -8 114 0 153 20 36 19 49 18 79 -6 27 -21 107 -28 118 -10 3 5 -15 28 -40
51 l-47 43 7 60 7 59 -59 -6 c-87 -9 -111 24 -53 75 26 22 30 33 30 75 0 26
-4 53 -8 59 -26 40 -136 57 -197 30z m103 -84 c4 -26 -13 -52 -34 -52 -23 0
-40 46 -24 65 19 23 54 15 58 -13z m-38 -182 c10 -5 28 -24 40 -40 28 -40 14
-60 -42 -60 -55 0 -78 15 -78 50 0 22 7 33 28 44 33 18 29 18 52 6z"/>
</g>
</svg>
